<svg width="1013" height="257" viewBox="0 0 1013 257" fill="none" xmlns="http://www.w3.org/2000/svg">
<path d="M256.883 110.851C257.888 102.105 264.421 97.6929 276.567 97.6929C283.017 97.6929 287.875 98.1656 291.058 99.1111C294.241 100.057 296.419 101.711 297.675 104.075C298.932 106.439 299.685 108.487 299.937 110.299C300.188 112.112 300.272 114.79 300.272 118.415V200.593C300.272 204.218 300.188 206.896 299.937 208.709C299.685 210.521 299.015 212.569 297.843 214.933C295.497 219.03 289.801 221 280.755 221C271.709 221 265.594 219.976 262.495 217.848C259.395 215.721 257.636 212.648 257.134 208.551C250.935 216.824 240.716 221 226.309 221C211.902 221 198.584 214.854 186.27 202.484C173.957 190.114 167.759 175.774 167.759 159.386C167.759 142.997 173.957 128.736 186.354 116.445C198.751 104.154 212.321 98.008 227.147 98.008C232.759 98.008 237.952 98.9535 242.643 100.844C247.334 102.735 250.517 104.469 252.359 106.123C254.202 107.699 255.71 109.275 256.883 110.851ZM255.124 158.992C255.124 147.488 245.24 138.191 233.01 138.191C220.781 138.191 210.897 147.488 210.897 158.992C210.897 170.495 220.781 179.793 233.01 179.793C245.24 179.793 255.124 170.495 255.124 158.992Z" fill="#330099"/>
<path d="M541.342 110.851C542.347 102.105 548.88 97.6929 561.026 97.6929C567.476 97.6929 572.334 98.1656 575.517 99.1111C578.7 100.057 580.878 101.711 582.134 104.075C583.391 106.439 584.145 108.487 584.396 110.299C584.647 112.112 584.731 114.79 584.731 118.415V200.593C584.731 204.218 584.647 206.896 584.396 208.709C584.145 210.521 583.475 212.569 582.302 214.933C579.956 219.03 574.261 221 565.214 221C556.168 221 550.053 219.976 546.954 217.848C543.855 215.721 542.096 212.648 541.593 208.551C535.395 216.824 525.176 221 510.768 221C496.361 221 483.043 214.854 470.73 202.484C458.416 190.114 452.218 175.774 452.218 159.386C452.218 142.997 458.416 128.736 470.813 116.445C483.21 104.154 496.78 98.008 511.606 98.008C517.218 98.008 522.411 98.9535 527.102 100.844C531.793 102.735 534.976 104.469 536.819 106.123C538.661 107.699 540.169 109.275 541.342 110.851ZM539.583 158.992C539.583 147.488 529.699 138.191 517.469 138.191C505.24 138.191 495.356 147.488 495.356 158.992C495.356 170.495 505.24 179.793 517.469 179.793C529.699 179.793 539.583 170.495 539.583 158.992Z" fill="#330099"/>
<path d="M380.35 179.793H422.901C429.518 179.793 434.293 180.58 437.225 182.156C440.156 183.732 442.083 186.017 443.088 188.932C444.093 191.926 444.596 195.787 444.596 200.593C444.596 205.399 444.093 209.339 443.088 212.254C442.083 215.248 440.324 217.297 437.895 218.479C435.382 219.661 433.204 220.37 431.277 220.606C429.351 220.842 426.503 220.921 422.734 220.921H332.856C327.076 220.921 321.967 218.873 317.695 214.854C313.423 210.836 311.245 205.951 311.245 200.357C311.245 194.763 313.423 189.957 317.695 185.938C321.967 181.999 328.668 176.247 337.547 168.762C346.509 161.277 354.634 154.501 361.922 148.513C369.209 142.525 373.23 139.215 373.816 138.585H338.719C329.254 138.585 323.307 137.088 320.794 134.173C317.946 130.706 316.606 126.215 316.606 120.621C316.606 115.027 317.025 110.851 317.862 108.093C318.7 105.336 319.705 103.366 320.878 102.026C322.051 100.687 323.726 99.6626 325.82 98.8747C328.668 98.0868 332.94 97.6929 338.719 97.6929H419.551C425.33 97.6929 430.44 99.6626 434.712 103.523C438.984 107.384 441.161 112.269 441.161 118.178C441.161 124.009 438.649 129.209 433.707 133.7C428.848 138.191 411.007 153.555 380.35 179.793Z" fill="#330099"/>
<path d="M638.339 114.239C646.129 103.208 655.427 97.6929 666.4 97.6929C683.236 97.6929 695.885 104.469 704.093 118.021C705.936 115.657 708.114 113.215 710.711 110.693C713.307 108.093 717.328 105.336 723.024 102.263C728.636 99.1899 734.415 97.6929 740.363 97.6929C753.597 97.6929 764.654 102.499 773.617 112.033C782.579 121.566 787.019 137.482 787.019 159.543V200.436C787.019 203.981 786.935 206.739 786.684 208.472C786.432 210.284 785.678 212.333 784.338 214.697C782.16 218.873 775.794 221 765.24 221C754.854 221 748.488 218.794 746.142 214.46C744.97 212.097 744.299 210.048 744.048 208.236C743.797 206.424 743.713 203.745 743.713 200.199V159.307C743.713 145.755 738.604 138.979 728.301 138.979C722.521 138.979 718.584 140.791 716.49 144.337C714.396 147.882 713.391 153.004 713.391 159.543V200.436C713.391 204.139 713.307 206.896 713.056 208.63C712.805 210.363 712.051 212.333 710.711 214.697C708.365 218.873 701.915 221 691.361 221C680.975 221 674.525 218.794 672.263 214.46C671.091 212.097 670.421 210.048 670.169 208.236C669.918 206.424 669.834 203.745 669.834 200.199V159.307C669.834 145.755 664.725 138.979 654.422 138.979C644.538 138.979 639.512 145.755 639.512 159.307V200.593C639.512 204.139 639.428 206.896 639.177 208.63C638.926 210.442 638.172 212.491 636.832 214.854C634.319 218.873 627.869 220.921 617.482 220.921C607.096 220.921 600.73 218.794 598.384 214.618C597.212 212.254 596.542 210.284 596.29 208.551C596.039 206.818 595.955 204.139 595.955 200.357V118.257C595.955 114.712 596.039 112.033 596.29 110.221C596.542 108.408 597.295 106.439 598.636 104.232C601.149 100.057 607.012 97.9293 616.226 97.9293C625.44 97.9293 631.555 99.3475 634.319 102.105C636.915 104.942 638.339 108.96 638.339 114.239Z" fill="#330099"/>
<path d="M113.816 157.022L147.321 183.102C151.509 186.411 154.19 188.932 155.278 190.666C156.367 192.399 156.954 194.054 156.954 195.629C156.954 199.411 154.357 204.533 149.164 210.994C143.468 217.612 138.442 220.921 134.086 220.921C130.401 220.921 125.291 218.636 118.758 214.066L116.245 212.412C112.392 209.418 106.445 204.139 98.4034 196.654C90.3622 189.169 84.2475 183.811 80.0593 180.659V198.466C80.0593 202.09 79.9755 206.66 79.7243 208.472C79.473 210.284 78.6353 212.412 77.2951 214.776C75.1173 218.873 68.6675 220.921 57.9459 220.921C47.3918 220.921 40.942 218.794 38.5966 214.539C37.424 212.175 36.6701 210.048 36.4188 208.236C36.1675 206.424 36 201.854 36 198.23V56.8795C36 53.2551 36.0838 50.4974 36.4188 48.6853C36.6701 46.8731 37.424 44.7457 38.5966 42.382C40.942 38.1273 47.4755 36 58.1972 36C66.2384 36 71.9343 37.3394 75.2848 40.0183C78.1328 42.2244 79.6405 45.6912 79.808 50.4186C79.9755 51.8369 80.0593 54.043 80.0593 57.0371V132.124C83.0748 129.761 113.313 108.251 116.329 105.887L119.344 103.996C125.208 99.7415 130.233 97.6141 134.421 97.6141C138.61 97.6141 143.468 100.845 148.912 107.227C154.357 113.609 157.121 118.651 157.121 122.276C157.121 125.9 154.022 130.155 147.824 135.04L113.816 157.022Z" fill="#330099"/>
<path d="M975.066 111.639C973.977 110.142 972.135 108.251 969.287 105.73L903.198 43.2488C898.256 38.4426 893.649 36.0789 889.042 36.0789H886.278C881.838 36.0789 877.315 38.4426 872.624 43.2488L805.865 105.572C800.421 110.299 797.908 114.081 797.908 117.548C797.908 118.966 798.159 120.857 798.745 123.221C799.415 126.136 801.928 129.446 806.452 133.7C810.975 137.955 814.577 140.24 817.76 140.949C820.189 141.422 822.199 141.737 823.79 141.737V204.218C823.79 213.357 831.748 220.764 841.381 220.764H933.52C943.236 220.764 951.11 213.279 951.11 204.218V141.816C952.785 141.816 954.796 141.579 957.309 141.028C960.408 140.397 963.926 138.034 968.449 133.779C972.972 129.524 975.401 126.215 976.155 123.3C976.742 120.936 976.993 119.045 976.993 117.548C977.077 115.5 976.407 113.53 975.066 111.639ZM878.823 48.9217C878.906 48.8429 878.906 48.8429 878.99 48.7641C882.843 44.8246 885.272 44.1943 886.278 44.1943H889.042C891.052 44.1943 893.9 45.8489 896.999 48.8429L929.583 79.65H892.979L890.885 77.6802C890.047 76.8923 888.958 76.4984 887.785 76.4984C886.613 76.4984 885.524 76.9711 884.686 77.6802L882.592 79.65H845.904L856.29 69.9588L878.823 48.9217ZM819.686 132.912C819.351 132.834 817.341 132.282 812.65 127.87C808.043 123.536 807.373 121.724 807.289 121.33C806.703 119.045 806.619 118.021 806.619 117.548C806.619 117.548 806.87 115.815 811.812 111.481L823.707 100.372V133.464C823.037 133.464 821.78 133.385 819.686 132.912ZM967.695 121.409C967.611 121.724 967.025 123.536 962.334 127.949C957.727 132.282 955.801 132.912 955.382 132.991C953.12 133.464 951.78 133.621 951.278 133.621H951.194V100.372L963.172 111.718C966.355 114.554 967.444 115.815 967.779 116.288C968.114 116.76 968.282 117.233 968.282 117.548C968.282 117.942 968.198 119.124 967.695 121.409Z" fill="black"/>
<path d="M975.066 111.639C973.977 110.142 972.135 108.251 969.287 105.73L903.198 43.2488C898.256 38.4426 893.649 36.0789 889.042 36.0789H886.278C881.838 36.0789 877.315 38.4426 872.624 43.2488L805.865 105.572C800.421 110.299 797.908 114.081 797.908 117.548C797.908 118.966 798.159 120.857 798.745 123.221C799.415 126.136 801.928 129.446 806.452 133.7C810.975 137.955 814.577 140.24 817.76 140.949C820.189 141.422 822.199 141.737 823.79 141.737V204.218C823.79 213.357 831.748 220.764 841.381 220.764H933.52C943.236 220.764 951.11 213.279 951.11 204.218V141.816C952.785 141.816 954.796 141.579 957.309 141.028C960.408 140.397 963.926 138.034 968.449 133.779C972.972 129.524 975.401 126.215 976.155 123.3C976.742 120.936 976.993 119.045 976.993 117.548C977.077 115.5 976.407 113.53 975.066 111.639ZM878.823 48.9217C878.906 48.8429 878.906 48.8429 878.99 48.7641C882.843 44.8246 885.272 44.1943 886.278 44.1943H889.042C891.052 44.1943 893.9 45.8489 896.999 48.8429L929.583 79.65H892.979L890.885 77.6802C890.047 76.8923 888.958 76.4984 887.785 76.4984C886.613 76.4984 885.524 76.9711 884.686 77.6802L882.592 79.65H845.904L856.29 69.9588L878.823 48.9217ZM819.686 132.912C819.351 132.834 817.341 132.282 812.65 127.87C808.043 123.536 807.373 121.724 807.289 121.33C806.703 119.045 806.619 118.021 806.619 117.548C806.619 117.548 806.87 115.815 811.812 111.481L823.707 100.372V133.464C823.037 133.464 821.78 133.385 819.686 132.912ZM967.695 121.409C967.611 121.724 967.025 123.536 962.334 127.949C957.727 132.282 955.801 132.912 955.382 132.991C953.12 133.464 951.78 133.621 951.278 133.621H951.194V100.372L963.172 111.718C966.355 114.554 967.444 115.815 967.779 116.288C968.114 116.76 968.282 117.233 968.282 117.548C968.282 117.942 968.198 119.124 967.695 121.409Z" fill="#330099"/>
<path d="M967.695 121.409C968.282 119.124 968.365 118.021 968.365 117.469C968.365 117.154 968.198 116.681 967.863 116.209C967.528 115.736 966.439 114.397 963.256 111.639L896.999 49.0005C893.9 45.9276 891.136 44.3518 889.042 44.3518H886.278C885.189 44.3518 882.843 44.9821 878.99 48.9217C878.907 49.0004 878.907 49.0004 878.823 49.0792L856.374 70.1951L811.896 111.56C806.954 115.894 806.703 117.627 806.703 117.627C806.703 118.021 806.787 119.124 807.373 121.409C807.457 121.724 808.043 123.536 812.734 127.948C817.341 132.282 819.351 132.912 819.77 132.991C822.199 133.464 823.539 133.621 824.209 133.621C824.461 133.621 824.879 133.543 825.382 133.227C825.968 132.834 827.309 131.809 830.324 128.973L870.949 90.9958L884.602 77.9953C885.44 77.2074 886.529 76.8135 887.702 76.8135C888.874 76.8135 889.963 77.2862 890.801 77.9953L944.912 128.973C949.519 133.306 951.194 133.621 951.278 133.7C951.78 133.7 953.121 133.621 955.382 133.07C955.717 132.991 957.644 132.44 962.334 128.027C966.941 123.536 967.612 121.724 967.695 121.409Z" fill="white"/>
</svg>
